<?xml version="1.0" encoding="utf-8"?>
<!-- Generator: Adobe Illustrator 24.3.0, SVG Export Plug-In . SVG Version: 6.00 Build 0)  -->
<svg version="1.1" id="Layer_1" xmlns="http://www.w3.org/2000/svg" xmlns:xlink="http://www.w3.org/1999/xlink" x="0px" y="0px"
	 viewBox="0 0 1096.22 342.57" style="enable-background:new 0 0 1096.22 342.57;" xml:space="preserve">
<style type="text/css">
	.st0{fill:#FFFFFF;}
</style>
<g>
	<g>
		<path class="st0" d="M1084.16,325.16c-356.67,0-713.33,0-1070,0c0-103,0-206,0-309c356.67,0,713.33,0,1070,0
			C1084.16,119.16,1084.16,222.16,1084.16,325.16z M78.05,114.96c0.6-0.09,1.2-0.19,1.8-0.28c0.91,1.96,1.91,3.88,2.72,5.88
			c5.81,14.48,7.74,30.32,18.35,43.18c5,6.07,10.18,11.2,16.59,15.24c6.64,4.18,14.55,3.42,20.04-2.26
			c3.63-3.76,5.78-8.94,9.31-12.83c8.88-9.77,12.07-22.08,14.98-34.19c3.28-13.64,3.56-27.76,2.74-41.85
			c-0.28-4.8,0.55-9.66,0.87-14.5c0.43-0.03,0.86-0.07,1.29-0.1c0.6,1.82,1.37,3.6,1.77,5.46c1.43,6.58,2.37,13.3,4.16,19.77
			c3.35,12.1,7.52,23.97,10.73,36.1c5.72,21.68,11.17,43.41,21.56,63.49c1.98,3.82,3.55,7.85,5.44,11.71
			c1.44,2.94,2.8,5.98,4.69,8.62c4.49,6.28,9.82,12.03,13.81,18.6c5.37,8.86,11.62,16.48,21.53,20.17c1.85,0.69,4.46-0.1,6.53-0.78
			c0.87-0.29,1.63-2.07,1.67-3.2c0.02-0.63-1.48-1.39-2.38-1.97c-4.85-3.12-10.9-5.25-14.36-9.5c-7.4-9.1-13.92-19.01-19.95-29.1
			c-4.82-8.06-8.78-16.71-12.42-25.38c-4.5-10.71-8.79-21.57-12.22-32.66c-3.65-11.78-6.18-23.91-9.23-35.87
			c-1.19-4.66-2.31-9.34-3.71-13.94c-3.69-12.15-7.48-24.27-11.28-36.39c-2.01-6.4-4.03-12.8-6.34-19.09
			c-0.33-0.88-2.57-1.84-3.52-1.53c-1.31,0.43-3.03,1.92-3.2,3.15c-1.45,10.64-2.88,21.31-3.69,32.02
			c-0.39,5.26,0.89,10.62,0.85,15.93c-0.13,17.15-5.67,33.25-9.83,49.63c-2.34,9.22-10.33,14.53-14.79,22.27
			c-0.65,1.13-3.16,2.3-4.21,1.9c-4.61-1.77-10-3.14-13.24-6.47c-5.12-5.27-9.75-11.53-12.8-18.18
			c-6.7-14.59-12.3-29.68-18.32-44.58c-3.09-7.66-5.98-15.4-9.25-22.97c-0.71-1.64-2.67-2.74-4.05-4.1c-1.14,2.02-3.18,4-3.26,6.05
			c-0.39,10.22-0.27,20.47-0.3,30.7c-0.04,17.14,0.01,34.28-0.12,51.43c-0.04,5.37-0.55,10.73-0.82,15.49
			c-1.98-0.25-3.56-0.9-4.68-0.44c-0.87,0.35-1.84,2.22-1.64,3.18c0.87,4.19,2.15,8.29,3.27,12.41c4.32-1.26,2.5,2.05,2.3,4.21
			c-0.87,9.37-1.83,18.73-2.54,28.12c-0.16,2.1,0.14,4.4,0.87,6.37c2.21,6.04,1.98,6.72-4.6,8.95c-1.13-2.22-2.28-4.48-3.47-6.83
			c-4.74,2.81-0.38,5.7-0.49,8.25c-4.91,3.99-5,7.44-0.52,9.53c2.74,1.27,5.35,2.82,8.05,4.26c0.36-1.46,0.88-3.6,1.48-6.04
			c6.7,2.9-1.3,9.62,3.74,12.33c2.11-0.78,3.91-1.86,5.79-2.03c3.67-0.33,5.29-2.22,5.77-5.67c0.58-4.14,0.14-7.81-1.04-12.08
			c-2.08-7.51-1.45-15.78-1.95-23.72c-0.15-2.47-0.03-4.99-0.46-7.41c-1.73-9.55-4.81-18.97-1.38-28.83
			c0.59-1.69-0.32-3.9-0.48-5.87c-0.1-1.28-0.41-2.65-0.09-3.83c3.91-14.35,3.6-28.87,2.47-43.54
			C76.17,125.95,77.51,120.42,78.05,114.96z M604.29,132.96c10.36-8.54,14.98-20.92,24.47-29.47c0.79-0.71,1.06-2.04,1.45-3.12
			c1.58-4.37,3.27-8.7,4.62-13.14c1.98-6.48,1.9-12.82-2.34-18.56c-4.95-6.69-11.52-8.42-19.66-7.53
			c-12.02,1.32-20.01,8.7-27.63,16.85c-1.15,1.23-1.51,3.26-2.07,4.98c-3.63,11.21-1.48,22,2.27,32.72c1.9,5.44,3,11.21,5.28,16.47
			c3.49,8.06,7.75,15.79,11.58,23.71c4.5,9.32,8.89,18.69,13.32,28.04c3.26,6.87,6.57,13.73,9.77,20.63
			c1.35,2.9,1.33,5.21-2.45,6.59c-1.68,0.61-3.04,2.57-4.15,4.18c-6.73,9.79-5.03,15.55,5.78,20.14c3.96,1.68,8.21,2.94,11.74,5.28
			c4.27,2.83,8.19,2.54,12.74,1.22c5.38-1.57,11-2.32,16.44-3.7c6.22-1.58,13.12-2.29,18.34-5.57c5.23-3.29,9.29-8.92,12.93-14.17
			c5.76-8.31,9.59-17.58,7.31-27.99c-1.39-6.35-3.25-12.72-5.93-18.61c-2.28-5-5.33-10.08-9.3-13.79
			c-5.62-5.26-12.09-9.81-18.75-13.73c-12.16-7.15-25.47-11.08-39.65-11.42C622.05,132.79,613.68,132.96,604.29,132.96z
			 M751.98,213.35c0.42-0.35,0.84-0.71,1.26-1.06c-0.74-1.06-1.26-2.45-2.26-3.12c-5.25-3.49-8.43-8.52-10.34-14.26
			c-2.28-6.83-2.15-13.75,1.64-20.12c0.61-1.03,3.62-1.93,3.73-1.76c2.16,3.46,5.02,6.89,5.82,10.72
			c1.79,8.64,3.69,16.86,8.32,24.77c5.33,9.11,11.04,13.54,22.43,14.51c16.77,1.43,31.03-18.14,23.53-34.05
			c-3.97-8.42-9.25-15.23-15.49-21.62c-10.64-10.89-22.76-16.33-38.16-10.31c-2.9,1.13-6.5,0.43-9.78,0.63
			c-4.82,0.28-10.23,0.24-12.63,5.17c-2.16,4.45-3.62,9.49-4.19,14.41c-1.85,16.22,7.89,28.65,14.58,42.04
			c0.35,0.7,1.18,1.7,1.73,1.67c2.28-0.14,4.54-0.62,6.81-0.98c-0.33-1.46-0.74-2.91-0.98-4.39c-0.23-1.39-0.29-2.8-0.49-4.97
			C749.64,211.94,750.81,212.64,751.98,213.35z M297.93,154.45c-0.96,2.88-1.69,5.44-2.65,7.92c-3.47,8.94-3.96,18.11-1.74,27.33
			c1.69,7.03,4.06,13.9,5.92,20.9c1.6,6.03-3.29,9.03-6.97,11.49c-2.36,1.57-7.5,1.81-9.7,0.25c-6.98-4.95-10.62-12.7-11.87-20.96
			c-1.34-8.89,0.89-17.63,4.9-25.6c3.17-6.32,5.17-14.01,14.09-15.39c1.35-0.21,2.7-1.99,3.51-3.37c0.4-0.69-0.6-3.06-0.67-3.05
			c-5.07,0.93-12.26,0.34-14.71,3.46c-5.38,6.85-9.43,15.26-11.99,23.65c-2.32,7.59-1.95,16-2.74,24.05
			c-0.64,6.52,2.33,11.54,6.66,16.01c1.27,1.31,2.57,2.63,3.61,4.11c4.56,6.53,15.16,8.94,22.11,4.85c2.67-1.57,5.35-4.88,7.77-4.66
			c2.48,0.23,4.65,3.82,6.96,5.93c0.25,0.23,0.47,0.47,0.74,0.68c6.71,5.21,14.29,9.27,22.76,7.67
			c10.56-1.99,20.21-6.48,24.93-17.67c-4.59-1.74-7.46,1.7-10.25,4.08c-6.85,5.86-14.07,8.64-22.83,4.74
			c-6.58-2.92-11.69-6.57-13.54-14.53c-1.82-7.8,4.55-14.44,1.51-22.27c-1.67-4.32-1.15-9.43-2.25-14.04
			c-0.87-3.66-3.2-6.97-3.98-10.64C306.23,163.47,303.67,158.61,297.93,154.45z M854.67,196.05c0.49,0.04,0.98,0.09,1.47,0.13
			c0.67,1.99,1.35,3.98,2.02,5.96c3.66,10.78,7.99,20.76,19.68,25.73c8.34,3.55,16.91,3.78,22.05-3.61
			c5.36-7.7,8.41-17.04,12.26-25.75c0.53-1.2-0.11-2.94-0.25-4.43c-0.25-2.79-0.98-5.62-0.7-8.36c1.22-11.92-4.71-21.15-11.2-30.08
			c-1.02-1.4-3.79-2.13-5.68-2.03c-0.93,0.05-2.48,2.76-2.43,4.21c0.24,6.76,0.83,13.52,1.61,20.24c0.12,1.02,1.86,1.85,2.86,2.77
			c0.75-1.17,1.97-2.28,2.14-3.54c0.34-2.42,0.1-4.92,0.1-7.38c0.62-0.05,1.23-0.09,1.85-0.14c0.72,3.15,1.54,6.27,2.13,9.44
			c2.42,13.14,0.65,25.67-6.66,36.96c-5.07,7.83-14.68,7.26-21.13,0.21c-9.19-10.05-10.93-23.03-15.28-35.02
			c-0.88-2.41-2.24-6.01-4.02-6.45c-3.41-0.83-4.02,2.85-4.96,5.57c-3.76,10.87-2.87,23.37-12.61,32.22
			c-4.39,3.99-7.27,4.78-10.4-0.3c-6.12-9.94-8.95-20.47-6.7-32.22c0.31-1.6-1.83-3.67-2.83-5.52c-1.59,1.29-4.23,2.35-4.59,3.93
			c-1.12,4.96-2.39,10.25-1.75,15.17c1.26,9.78,4.18,19.43,11.46,26.52c2.42,2.36,7.9,4.29,10.6,3.15
			c7.75-3.29,16.16-6.73,17.8-16.97C852.08,202.92,853.59,199.52,854.67,196.05z M382.55,206.67
			c13.48,11.24,26.73,22.29,39.97,33.34c2.55,2.13,4.85,4.73,7.72,6.25c2.1,1.12,6.06,1.99,7.2,0.9c1.74-1.67,2.75-5.34,2.23-7.77
			c-0.47-2.2-3.85-5.72-5.19-5.4c-3.7,0.87-5.17-1.29-7.21-3.1c-1.99-1.76-3.99-3.49-6-5.23c-9.4-8.11-19.03-15.97-28.1-24.44
			c-5.13-4.79-4.95-7.41-1.49-13.54c0.57-1.01,1.53-1.81,2-2.85c3.32-7.39,6.59-14.79,9.76-22.25c0.3-0.72-0.24-1.79-0.59-3.87
			c-10.55,7.4-11.94,20.74-21.03,28.2c-2.31-1.92-4.44-3.48-6.33-5.31c-4.03-3.89-7.98-7.87-11.86-11.91
			c-4.21-4.38-8.2-8.97-12.5-13.26c-0.89-0.89-3.38-1.61-3.9-1.11c-1.02,0.97-1.9,3.04-1.57,4.33c1.32,5.12,3.08,10.13,4.84,15.12
			c0.25,0.7,1.37,1.1,2.45,1.92c0.45-2.75,0.81-4.94,1.18-7.14c0.43-0.03,0.86-0.07,1.29-0.1c0.82,1.74,1.55,3.53,2.47,5.21
			c0.94,1.72,1.85,3.51,3.13,4.97c4.77,5.48,9.77,10.77,14.47,16.32c0.75,0.88,1.01,2.97,0.49,3.99
			c-4.13,8.23-8.67,16.25-12.67,24.53c-0.96,1.99-0.81,4.81-0.33,7.06c0.21,0.99,3.03,2.47,3.84,2.07c1.87-0.93,3.69-2.62,4.72-4.46
			c2.01-3.6,3.36-7.56,5.17-11.27C378.69,213.82,380.89,209.85,382.55,206.67z M941.4,223.98c0.72,0.02,1.44,0.05,2.16,0.07
			c0.94-4.44,3.31-9.14,2.55-13.26c-2.24-12.07-1.83-23.63,2.56-35.1c2.21-5.77,5.2-6.64,9.28-1.99c4.38,4.99,9.03,9.94,12.32,15.62
			c7.89,13.64,16.95,26.21,29.48,35.91c6.78,5.25,13.75,10.36,21.09,14.76c4.91,2.94,9.8,1.32,12.21-2.82
			c1.82-3.12,3.61-6.3,5.01-9.62c0.74-1.75,0.87-3.87,0.8-5.8c-0.11-2.6-0.46-5.24-1.1-7.76c-1.1-4.28-2.52-8.48-3.8-12.72
			c-0.52,0.07-1.04,0.15-1.56,0.22c-0.4,0.98-1.11,1.94-1.15,2.93c-0.24,5.12-0.56,10.25-0.38,15.36c0.16,4.56-0.94,8.95-5.04,10.47
			c-2.36,0.88-5.99-1.27-8.9-2.42c-1.3-0.51-2.22-1.94-3.33-2.94c-6.03-5.41-11.61-11.46-18.21-16.04
			c-7.12-4.95-10.46-12.44-15.39-18.87c-6.26-8.16-9.78-18.34-18.91-24.43c-6.64-4.43-15.95-3.02-18.8,4.26
			c-2.63,6.72-5.64,13.99-5.49,20.95C937.01,201.88,939.73,212.92,941.4,223.98z"/>
		<path d="M78.05,114.96c-0.54,5.46-1.88,10.99-1.47,16.38c1.13,14.67,1.44,29.19-2.47,43.54c-0.32,1.18-0.01,2.55,0.09,3.83
			c0.16,1.97,1.07,4.17,0.48,5.87c-3.43,9.86-0.35,19.28,1.38,28.83c0.44,2.42,0.31,4.94,0.46,7.41c0.5,7.95-0.13,16.21,1.95,23.72
			c1.18,4.28,1.62,7.94,1.04,12.08c-0.48,3.45-2.1,5.34-5.77,5.67c-1.88,0.17-3.67,1.26-5.79,2.03c-5.04-2.71,2.97-9.43-3.74-12.33
			c-0.6,2.44-1.12,4.59-1.48,6.04c-2.7-1.44-5.31-2.99-8.05-4.26c-4.48-2.08-4.39-5.54,0.52-9.53c0.11-2.55-4.26-5.44,0.49-8.25
			c1.19,2.35,2.34,4.61,3.47,6.83c6.58-2.22,6.81-2.9,4.6-8.95c-0.72-1.98-1.03-4.27-0.87-6.37c0.72-9.38,1.67-18.75,2.54-28.12
			c0.2-2.17,2.02-5.48-2.3-4.21c-1.12-4.12-2.4-8.22-3.27-12.41c-0.2-0.96,0.77-2.83,1.64-3.18c1.13-0.46,2.7,0.19,4.68,0.44
			c0.26-4.77,0.77-10.13,0.82-15.49c0.13-17.14,0.08-34.28,0.12-51.43c0.02-10.24-0.09-20.48,0.3-30.7
			c0.08-2.06,2.12-4.04,3.26-6.05c1.38,1.35,3.35,2.45,4.05,4.1c3.27,7.58,6.16,15.32,9.25,22.97c6.01,14.9,11.62,30,18.32,44.58
			c3.06,6.66,7.68,12.92,12.8,18.18c3.24,3.33,8.63,4.7,13.24,6.47c1.05,0.4,3.56-0.77,4.21-1.9c4.46-7.74,12.44-13.05,14.79-22.27
			c4.16-16.38,9.7-32.49,9.83-49.63c0.04-5.31-1.24-10.67-0.85-15.93c0.8-10.71,2.24-21.37,3.69-32.02c0.17-1.22,1.89-2.72,3.2-3.15
			c0.95-0.31,3.19,0.65,3.52,1.53c2.31,6.29,4.33,12.69,6.34,19.09c3.81,12.12,7.6,24.24,11.28,36.39c1.39,4.6,2.52,9.28,3.71,13.94
			c3.05,11.97,5.58,24.09,9.23,35.87c3.43,11.09,7.72,21.94,12.22,32.66c3.64,8.68,7.6,17.32,12.42,25.38
			c6.03,10.09,12.54,20,19.95,29.1c3.46,4.25,9.5,6.38,14.36,9.5c0.9,0.58,2.4,1.34,2.38,1.97c-0.04,1.13-0.8,2.92-1.67,3.2
			c-2.07,0.69-4.68,1.47-6.53,0.78c-9.91-3.7-16.15-11.32-21.53-20.17c-3.99-6.57-9.32-12.32-13.81-18.6
			c-1.89-2.64-3.26-5.68-4.69-8.62c-1.89-3.87-3.46-7.89-5.44-11.71c-10.39-20.09-15.84-41.82-21.56-63.49
			c-3.2-12.13-7.37-24.01-10.73-36.1c-1.8-6.48-2.73-13.19-4.16-19.77c-0.4-1.86-1.17-3.64-1.77-5.46c-0.43,0.03-0.86,0.07-1.29,0.1
			c-0.32,4.83-1.15,9.7-0.87,14.5c0.82,14.09,0.54,28.21-2.74,41.85c-2.91,12.11-6.1,24.42-14.98,34.19
			c-3.53,3.89-5.68,9.06-9.31,12.83c-5.48,5.68-13.4,6.44-20.04,2.26c-6.41-4.04-11.58-9.17-16.59-15.24
			c-10.61-12.86-12.54-28.7-18.35-43.18c-0.8-2-1.81-3.92-2.72-5.88C79.26,114.77,78.65,114.86,78.05,114.96z"/>
		<path d="M604.29,132.96c9.39,0,17.75-0.17,26.11,0.04c14.19,0.35,27.5,4.27,39.65,11.42c6.66,3.92,13.12,8.47,18.75,13.73
			c3.96,3.71,7.02,8.78,9.3,13.79c2.68,5.89,4.54,12.27,5.93,18.61c2.28,10.4-1.56,19.68-7.31,27.99
			c-3.64,5.25-7.7,10.88-12.93,14.17c-5.22,3.28-12.12,3.99-18.34,5.57c-5.44,1.39-11.06,2.13-16.44,3.7
			c-4.55,1.33-8.47,1.62-12.74-1.22c-3.53-2.34-7.78-3.6-11.74-5.28c-10.81-4.6-12.51-10.35-5.78-20.14
			c1.11-1.62,2.47-3.57,4.15-4.18c3.78-1.38,3.79-3.69,2.45-6.59c-3.2-6.9-6.51-13.76-9.77-20.63c-4.44-9.35-8.82-18.72-13.32-28.04
			c-3.83-7.92-8.09-15.65-11.58-23.71c-2.28-5.27-3.38-11.03-5.28-16.47c-3.75-10.73-5.91-21.52-2.27-32.72
			c0.56-1.72,0.92-3.75,2.07-4.98c7.62-8.15,15.61-15.53,27.63-16.85c8.14-0.9,14.71,0.83,19.66,7.53
			c4.24,5.74,4.32,12.08,2.34,18.56c-1.35,4.44-3.04,8.77-4.62,13.14c-0.39,1.08-0.66,2.41-1.45,3.12
			C619.27,112.04,614.65,124.42,604.29,132.96z M640.61,210.5c-0.52,2.16-1.54,3.93-1.16,5.31c1.29,4.63,2.93,9.18,4.79,13.62
			c0.6,1.44,2.36,3.5,3.49,3.44c6.69-0.34,13.66-0.23,19.97-2.15c10.65-3.25,18.85-10.99,24.51-20.11
			c8.25-13.3,2.83-26.83-3.01-39.44c-4.55-9.82-13.82-14.89-23.26-19.25c-16.6-7.67-34.24-10.54-52.37-10.61
			c-2.09-0.01-5.54,1.14-5.96,2.5c-0.67,2.16,0.2,5.17,1.25,7.43c5.99,12.89,12,25.78,18.46,38.44
			C631.09,197.09,632.87,205.91,640.61,210.5z M597.96,128.2c1.54-1.06,2.04-1.25,2.31-1.62c4.8-6.5,9.51-13.07,14.4-19.51
			c1.82-2.39,4.67-4.17,5.93-6.77c2.72-5.6,4.98-11.47,6.96-17.39c2.58-7.74-2.07-13.88-10.22-13.32
			c-4.55,0.32-9.12,1.48-13.51,2.84c-8.89,2.74-14.14,10.03-13.89,19.26c0.14,5.06,0.46,10.22,1.61,15.13
			C593.19,113.82,595.65,120.64,597.96,128.2z M628.87,217.15c-2.26,2.48-5.13,4.19-5.11,5.87c0.06,5.09,5.65,3.91,8.5,6
			c0.23,0.17,2.53-1.76,2.42-1.95C633.08,224,631.23,221.06,628.87,217.15z"/>
		<path d="M751.98,213.35c-1.17-0.71-2.34-1.42-4.51-2.73c0.21,2.17,0.26,3.59,0.49,4.97c0.24,1.48,0.65,2.93,0.98,4.39
			c-2.27,0.36-4.53,0.84-6.81,0.98c-0.55,0.03-1.38-0.97-1.73-1.67c-6.69-13.39-16.44-25.82-14.58-42.04
			c0.56-4.92,2.03-9.96,4.19-14.41c2.4-4.94,7.81-4.89,12.63-5.17c3.28-0.19,6.88,0.51,9.78-0.63c15.41-6.03,27.53-0.58,38.16,10.31
			c6.24,6.39,11.52,13.2,15.49,21.62c7.49,15.91-6.76,35.48-23.53,34.05c-11.39-0.97-17.1-5.4-22.43-14.51
			c-4.62-7.91-6.53-16.12-8.32-24.77c-0.79-3.83-3.66-7.26-5.82-10.72c-0.1-0.16-3.12,0.73-3.73,1.76
			c-3.79,6.37-3.91,13.29-1.64,20.12c1.91,5.74,5.09,10.77,10.34,14.26c1,0.67,1.52,2.06,2.26,3.12
			C752.82,212.65,752.4,213,751.98,213.35z M781.97,214.27c10.38,0.34,12.71-3.08,16.88-10.48c3.41-6.06,1.22-15.14-3.91-20.21
			c-5.01-4.96-10.24-9.7-15.13-14.77c-6.95-7.22-14.83-9.37-24.4-5.88c-3.38,1.23-3.43,2.95-2.39,5.69
			c4.18,10.96,8.35,21.92,12.41,32.93C769.1,211.47,772.36,214.06,781.97,214.27z"/>
		<path d="M297.93,154.45c5.74,4.16,8.3,9.02,9.57,14.95c0.78,3.66,3.11,6.98,3.98,10.64c1.1,4.61,0.58,9.72,2.25,14.04
			c3.04,7.83-3.33,14.47-1.51,22.27c1.85,7.96,6.96,11.61,13.54,14.53c8.76,3.9,15.98,1.12,22.83-4.74
			c2.78-2.38,5.65-5.82,10.25-4.08c-4.72,11.2-14.38,15.68-24.93,17.67c-8.47,1.6-16.05-2.46-22.76-7.67
			c-0.26-0.2-0.49-0.45-0.74-0.68c-2.31-2.12-4.48-5.7-6.96-5.93c-2.42-0.23-5.1,3.09-7.77,4.66c-6.96,4.09-17.55,1.68-22.11-4.85
			c-1.04-1.49-2.34-2.8-3.61-4.11c-4.33-4.47-7.3-9.49-6.66-16.01c0.79-8.05,0.42-16.46,2.74-24.05c2.56-8.39,6.61-16.8,11.99-23.65
			c2.45-3.12,9.64-2.53,14.71-3.46c0.07-0.01,1.07,2.36,0.67,3.05c-0.81,1.38-2.16,3.16-3.51,3.37
			c-8.92,1.38-10.92,9.08-14.09,15.39c-4,7.98-6.24,16.72-4.9,25.6c1.25,8.26,4.89,16.01,11.87,20.96c2.2,1.56,7.34,1.32,9.7-0.25
			c3.69-2.46,8.57-5.46,6.97-11.49c-1.86-7-4.22-13.86-5.92-20.9c-2.22-9.22-1.73-18.4,1.74-27.33
			C296.24,159.89,296.97,157.33,297.93,154.45z M304.66,196.51c2.55-5.74,0.45-16.83-3.76-21.19
			C298.44,182.92,301.47,189.27,304.66,196.51z"/>
		<path d="M854.67,196.05c-1.08,3.47-2.59,6.87-3.16,10.43c-1.65,10.24-10.06,13.68-17.8,16.97c-2.7,1.14-8.18-0.79-10.6-3.15
			c-7.28-7.09-10.2-16.74-11.46-26.52c-0.64-4.92,0.64-10.21,1.75-15.17c0.35-1.57,2.99-2.63,4.59-3.93c1,1.85,3.14,3.92,2.83,5.52
			c-2.25,11.76,0.58,22.28,6.7,32.22c3.13,5.08,6.01,4.28,10.4,0.3c9.74-8.85,8.84-21.35,12.61-32.22c0.94-2.73,1.55-6.41,4.96-5.57
			c1.78,0.43,3.15,4.03,4.02,6.45c4.35,11.99,6.1,24.97,15.28,35.02c6.45,7.05,16.06,7.62,21.13-0.21
			c7.31-11.29,9.08-23.81,6.66-36.96c-0.58-3.17-1.41-6.29-2.13-9.44c-0.62,0.05-1.23,0.09-1.85,0.14c0,2.47,0.24,4.97-0.1,7.38
			c-0.18,1.26-1.4,2.36-2.14,3.54c-0.99-0.92-2.74-1.75-2.86-2.77c-0.78-6.72-1.37-13.48-1.61-20.24c-0.05-1.46,1.5-4.16,2.43-4.21
			c1.9-0.1,4.67,0.63,5.68,2.03c6.49,8.94,12.42,18.16,11.2,30.08c-0.28,2.73,0.45,5.57,0.7,8.36c0.13,1.49,0.78,3.22,0.25,4.43
			c-3.85,8.71-6.9,18.05-12.26,25.75c-5.14,7.39-13.72,7.15-22.05,3.61c-11.69-4.97-16.02-14.95-19.68-25.73
			c-0.67-1.99-1.35-3.98-2.02-5.96C855.65,196.14,855.16,196.09,854.67,196.05z"/>
		<path d="M382.55,206.67c-1.67,3.18-3.87,7.15-5.85,11.22c-1.81,3.72-3.16,7.68-5.17,11.27c-1.03,1.84-2.85,3.53-4.72,4.46
			c-0.81,0.4-3.63-1.08-3.84-2.07c-0.49-2.25-0.63-5.07,0.33-7.06c4-8.28,8.54-16.31,12.67-24.53c0.52-1.03,0.25-3.12-0.49-3.99
			c-4.7-5.54-9.7-10.83-14.47-16.32c-1.27-1.46-2.19-3.25-3.13-4.97c-0.92-1.69-1.65-3.47-2.47-5.21c-0.43,0.03-0.86,0.07-1.29,0.1
			c-0.36,2.19-0.72,4.38-1.18,7.14c-1.08-0.82-2.2-1.21-2.45-1.92c-1.75-4.99-3.51-10-4.84-15.12c-0.33-1.29,0.55-3.36,1.57-4.33
			c0.52-0.5,3.01,0.23,3.9,1.11c4.29,4.29,8.29,8.88,12.5,13.26c3.88,4.04,7.83,8.02,11.86,11.91c1.89,1.82,4.02,3.39,6.33,5.31
			c9.09-7.46,10.48-20.8,21.03-28.2c0.35,2.07,0.89,3.15,0.59,3.87c-3.16,7.45-6.44,14.86-9.76,22.25c-0.47,1.04-1.43,1.84-2,2.85
			c-3.46,6.13-3.64,8.76,1.49,13.54c9.07,8.46,18.71,16.32,28.1,24.44c2.01,1.73,4.02,3.47,6,5.23c2.04,1.81,3.51,3.97,7.21,3.1
			c1.33-0.31,4.71,3.21,5.19,5.4c0.52,2.42-0.49,6.1-2.23,7.77c-1.14,1.09-5.1,0.21-7.2-0.9c-2.87-1.53-5.17-4.12-7.72-6.25
			C409.28,228.96,396.04,217.91,382.55,206.67z"/>
		<path d="M941.4,223.98c-1.67-11.06-4.39-22.1-4.63-33.2c-0.15-6.96,2.85-14.23,5.49-20.95c2.85-7.29,12.16-8.69,18.8-4.26
			c9.13,6.09,12.65,16.27,18.91,24.43c4.93,6.43,8.28,13.93,15.39,18.87c6.6,4.59,12.18,10.63,18.21,16.04
			c1.11,1,2.04,2.43,3.33,2.94c2.91,1.15,6.54,3.3,8.9,2.42c4.1-1.52,5.2-5.91,5.04-10.47c-0.18-5.11,0.14-10.24,0.38-15.36
			c0.05-0.99,0.75-1.96,1.15-2.93c0.52-0.07,1.04-0.15,1.56-0.22c1.28,4.24,2.7,8.44,3.8,12.72c0.65,2.52,1,5.16,1.1,7.76
			c0.08,1.93-0.06,4.05-0.8,5.8c-1.4,3.32-3.19,6.5-5.01,9.62c-2.41,4.14-7.3,5.76-12.21,2.82c-7.34-4.4-14.31-9.51-21.09-14.76
			c-12.53-9.7-21.59-22.27-29.48-35.91c-3.29-5.69-7.94-10.64-12.32-15.62c-4.08-4.65-7.07-3.78-9.28,1.99
			c-4.39,11.47-4.8,23.03-2.56,35.1c0.76,4.12-1.61,8.82-2.55,13.26C942.84,224.03,942.12,224,941.4,223.98z"/>
		<path class="st0" d="M640.61,210.5c-7.74-4.58-9.52-13.41-13.3-20.82c-6.46-12.66-12.47-25.55-18.46-38.44
			c-1.05-2.26-1.92-5.27-1.25-7.43c0.42-1.36,3.87-2.51,5.96-2.5c18.13,0.07,35.77,2.94,52.37,10.61
			c9.43,4.36,18.71,9.43,23.26,19.25c5.84,12.62,11.26,26.14,3.01,39.44c-5.66,9.12-13.86,16.86-24.51,20.11
			c-6.3,1.92-13.27,1.81-19.97,2.15c-1.13,0.06-2.89-2-3.49-3.44c-1.86-4.43-3.49-8.99-4.79-13.62
			C639.07,214.43,640.1,212.66,640.61,210.5z"/>
		<path class="st0" d="M597.96,128.2c-2.31-7.56-4.78-14.38-6.41-21.39c-1.15-4.91-1.47-10.07-1.61-15.13
			c-0.26-9.22,5-16.51,13.89-19.26c4.38-1.35,8.95-2.52,13.51-2.84c8.16-0.57,12.8,5.58,10.22,13.32
			c-1.97,5.92-4.23,11.79-6.96,17.39c-1.26,2.6-4.12,4.38-5.93,6.77c-4.88,6.44-9.59,13.01-14.4,19.51
			C600,126.94,599.5,127.13,597.96,128.2z"/>
		<path class="st0" d="M628.87,217.15c2.36,3.91,4.21,6.85,5.82,9.92c0.1,0.2-2.19,2.12-2.42,1.95c-2.85-2.1-8.45-0.92-8.5-6
			C623.74,221.34,626.61,219.63,628.87,217.15z"/>
		<path class="st0" d="M781.97,214.27c-9.61-0.21-12.87-2.8-16.54-12.73c-4.06-11-8.24-21.97-12.41-32.93
			c-1.04-2.74-0.99-4.45,2.39-5.69c9.57-3.49,17.45-1.34,24.4,5.88c4.88,5.08,10.12,9.82,15.13,14.77
			c5.13,5.08,7.33,14.15,3.91,20.21C794.69,211.19,792.36,214.61,781.97,214.27z"/>
		<path class="st0" d="M304.66,196.51c-3.19-7.24-6.22-13.59-3.76-21.19C305.11,179.68,307.21,190.77,304.66,196.51z"/>
	</g>
</g>
</svg>
